<mxfile host="app.diagrams.net" modified="2023-10-03T11:23:38.705Z" agent="Mozilla/5.0 (Windows NT 10.0; Win64; x64) AppleWebKit/537.36 (KHTML, like Gecko) Chrome/117.0.0.0 Safari/537.36" etag="yvWaiwIrFzhGDLgonPB-" version="22.0.2" type="device">
  <diagram name="1 oldal" id="TqjTq6WPyhJOgO69aMNU">
    <mxGraphModel dx="1195" dy="1827" grid="1" gridSize="10" guides="1" tooltips="1" connect="1" arrows="1" fold="1" page="1" pageScale="1" pageWidth="827" pageHeight="1169" math="0" shadow="0">
      <root>
        <mxCell id="0" />
        <mxCell id="1" parent="0" />
        <mxCell id="eoE_popFYDkH5xg9T_w8-3" style="edgeStyle=orthogonalEdgeStyle;rounded=0;orthogonalLoop=1;jettySize=auto;html=1;exitX=0.52;exitY=0.997;exitDx=0;exitDy=0;exitPerimeter=0;" edge="1" parent="1">
          <mxGeometry relative="1" as="geometry">
            <mxPoint x="205.04999999999998" y="150" as="sourcePoint" />
            <mxPoint x="200" y="170" as="targetPoint" />
            <Array as="points">
              <mxPoint x="194.95" y="150.48" />
              <mxPoint x="199.95" y="150.48" />
            </Array>
          </mxGeometry>
        </mxCell>
        <mxCell id="eoE_popFYDkH5xg9T_w8-1" value="START" style="ellipse;whiteSpace=wrap;html=1;aspect=fixed;" vertex="1" parent="1">
          <mxGeometry x="120" y="-10" width="160" height="160" as="geometry" />
        </mxCell>
        <mxCell id="eoE_popFYDkH5xg9T_w8-2" value="be : lista" style="rounded=0;whiteSpace=wrap;html=1;" vertex="1" parent="1">
          <mxGeometry x="140" y="220" width="120" height="60" as="geometry" />
        </mxCell>
        <mxCell id="eoE_popFYDkH5xg9T_w8-4" value="osszeg = 0" style="rounded=0;whiteSpace=wrap;html=1;" vertex="1" parent="1">
          <mxGeometry x="140" y="290" width="120" height="60" as="geometry" />
        </mxCell>
        <mxCell id="eoE_popFYDkH5xg9T_w8-9" value="" style="edgeStyle=orthogonalEdgeStyle;rounded=0;orthogonalLoop=1;jettySize=auto;html=1;" edge="1" parent="1" source="eoE_popFYDkH5xg9T_w8-6" target="eoE_popFYDkH5xg9T_w8-7">
          <mxGeometry relative="1" as="geometry" />
        </mxCell>
        <mxCell id="eoE_popFYDkH5xg9T_w8-6" value="i = 1" style="rounded=0;whiteSpace=wrap;html=1;" vertex="1" parent="1">
          <mxGeometry x="140" y="360" width="120" height="60" as="geometry" />
        </mxCell>
        <mxCell id="eoE_popFYDkH5xg9T_w8-10" style="edgeStyle=orthogonalEdgeStyle;rounded=0;orthogonalLoop=1;jettySize=auto;html=1;" edge="1" parent="1" source="eoE_popFYDkH5xg9T_w8-7">
          <mxGeometry relative="1" as="geometry">
            <mxPoint x="330" y="560" as="targetPoint" />
          </mxGeometry>
        </mxCell>
        <mxCell id="eoE_popFYDkH5xg9T_w8-17" style="edgeStyle=orthogonalEdgeStyle;rounded=0;orthogonalLoop=1;jettySize=auto;html=1;entryX=0.5;entryY=0;entryDx=0;entryDy=0;" edge="1" parent="1" source="eoE_popFYDkH5xg9T_w8-7" target="eoE_popFYDkH5xg9T_w8-15">
          <mxGeometry relative="1" as="geometry" />
        </mxCell>
        <mxCell id="eoE_popFYDkH5xg9T_w8-7" value="while i &amp;lt;= listahossz" style="rhombus;whiteSpace=wrap;html=1;" vertex="1" parent="1">
          <mxGeometry x="110" y="460" width="180" height="200" as="geometry" />
        </mxCell>
        <mxCell id="eoE_popFYDkH5xg9T_w8-8" value="listahossz = len(lista)" style="rounded=0;whiteSpace=wrap;html=1;" vertex="1" parent="1">
          <mxGeometry x="140" y="170" width="120" height="40" as="geometry" />
        </mxCell>
        <mxCell id="eoE_popFYDkH5xg9T_w8-13" style="edgeStyle=orthogonalEdgeStyle;rounded=0;orthogonalLoop=1;jettySize=auto;html=1;" edge="1" parent="1" source="eoE_popFYDkH5xg9T_w8-11" target="eoE_popFYDkH5xg9T_w8-12">
          <mxGeometry relative="1" as="geometry" />
        </mxCell>
        <mxCell id="eoE_popFYDkH5xg9T_w8-11" value="i += 1" style="rounded=0;whiteSpace=wrap;html=1;" vertex="1" parent="1">
          <mxGeometry x="330" y="530" width="120" height="60" as="geometry" />
        </mxCell>
        <mxCell id="eoE_popFYDkH5xg9T_w8-14" style="edgeStyle=orthogonalEdgeStyle;rounded=0;orthogonalLoop=1;jettySize=auto;html=1;" edge="1" parent="1" source="eoE_popFYDkH5xg9T_w8-12">
          <mxGeometry relative="1" as="geometry">
            <mxPoint x="200" y="450" as="targetPoint" />
            <Array as="points">
              <mxPoint x="590" y="450" />
            </Array>
          </mxGeometry>
        </mxCell>
        <mxCell id="eoE_popFYDkH5xg9T_w8-12" value="osszeg += lista[i]" style="rounded=0;whiteSpace=wrap;html=1;" vertex="1" parent="1">
          <mxGeometry x="510" y="530" width="120" height="60" as="geometry" />
        </mxCell>
        <mxCell id="eoE_popFYDkH5xg9T_w8-19" style="edgeStyle=orthogonalEdgeStyle;rounded=0;orthogonalLoop=1;jettySize=auto;html=1;entryX=0;entryY=0.5;entryDx=0;entryDy=0;" edge="1" parent="1" source="eoE_popFYDkH5xg9T_w8-15" target="eoE_popFYDkH5xg9T_w8-18">
          <mxGeometry relative="1" as="geometry" />
        </mxCell>
        <mxCell id="eoE_popFYDkH5xg9T_w8-15" value="ki : osszeg" style="shape=parallelogram;perimeter=parallelogramPerimeter;whiteSpace=wrap;html=1;fixedSize=1;" vertex="1" parent="1">
          <mxGeometry x="130" y="700" width="140" height="80" as="geometry" />
        </mxCell>
        <mxCell id="eoE_popFYDkH5xg9T_w8-18" value="end" style="ellipse;whiteSpace=wrap;html=1;" vertex="1" parent="1">
          <mxGeometry x="344" y="715" width="70" height="50" as="geometry" />
        </mxCell>
      </root>
    </mxGraphModel>
  </diagram>
</mxfile>
